<?xml version="1.0" encoding="iso-8859-1"?>
<!-- Generator: Adobe Illustrator 19.0.0, SVG Export Plug-In . SVG Version: 6.00 Build 0)  -->
<svg version="1.1" id="Layer_1" xmlns="http://www.w3.org/2000/svg" xmlns:xlink="http://www.w3.org/1999/xlink" x="0px" y="0px"
	 viewBox="0 0 496 496" style="enable-background:new 0 0 496 496;" xml:space="preserve">
<g>
	<g>
		<g>
			<path d="M384,192V0H0v304h112v192h384V192H384z M16,16h352v48H16V16z M112,288H16V80h352v112h-16V96H32v144h80V288z M112,224H48
				V112h288v80H112V224z M272,480c0-17.648,14.352-32,32-32s32,14.352,32,32H272z M400,480h-48c0-26.472-21.528-48-48-48
				s-48,21.528-48,48h-48v-16h17.448l1.648-5.816c1.72-6.064,4.104-11.832,7.08-17.152l2.952-5.28l-12.32-12.32l22.624-22.624
				l12.32,12.312l5.28-2.952c5.32-2.976,11.088-5.352,17.152-7.072l5.816-1.648V384h32v17.448l5.824,1.648
				c6.064,1.72,11.832,4.096,17.152,7.072l5.28,2.952l12.32-12.312l22.624,22.624l-12.32,12.32l2.952,5.28
				c2.976,5.32,5.36,11.088,7.08,17.152l1.64,5.816H400V480z M480,480h-16V288H352v16h96v176h-32v-32h-21.544
				c-1.128-3.2-2.416-6.328-3.848-9.344l15.216-15.224l-45.248-45.248L345.36,393.4c-3.04-1.44-6.16-2.728-9.36-3.856V368h-64
				v21.544c-3.2,1.128-6.32,2.416-9.352,3.848l-15.216-15.216l-45.248,45.248l15.216,15.224c-1.44,3.024-2.728,6.144-3.848,9.344
				H192v32h-32V304h96v-16H144v192h-16V272h352V480z M480,256H128v-48h352V256z"/>
			<rect x="144" y="224" width="16" height="16"/>
			<rect x="176" y="224" width="16" height="16"/>
			<rect x="208" y="224" width="16" height="16"/>
			<rect x="32" y="32" width="16" height="16"/>
			<rect x="64" y="32" width="16" height="16"/>
			<rect x="96" y="32" width="16" height="16"/>
			<rect x="32" y="256" width="64" height="16"/>
			<rect x="296" y="288" width="16" height="16"/>
			<rect x="296" y="224" width="16" height="16"/>
			<rect x="296" y="160" width="16" height="16"/>
			<rect x="296" y="128" width="16" height="16"/>
			<rect x="264" y="128" width="16" height="16"/>
			<rect x="232" y="128" width="16" height="16"/>
			<rect x="200" y="128" width="16" height="16"/>
			<rect x="168" y="128" width="16" height="16"/>
			<polygon points="349.656,317.656 338.344,306.344 312,332.688 312,320 296,320 296,332.688 269.656,306.344 258.344,317.656 
				304,363.312 			"/>
		</g>
	</g>
</g>
<g>
</g>
<g>
</g>
<g>
</g>
<g>
</g>
<g>
</g>
<g>
</g>
<g>
</g>
<g>
</g>
<g>
</g>
<g>
</g>
<g>
</g>
<g>
</g>
<g>
</g>
<g>
</g>
<g>
</g>
</svg>
