<svg xmlns="http://www.w3.org/2000/svg" xmlns:xlink="http://www.w3.org/1999/xlink" viewBox="-3178 37 154.105 40.753">
  <defs>
    <style>
      .cls-1 {
        fill: url(#linear-gradient);
      }
    </style>
    <linearGradient id="linear-gradient" x2="0" y2="1" gradientUnits="objectBoundingBox">
      <stop offset="0" stop-color="#0cecce"/>
      <stop offset="1" stop-color="#0b4eec"/>
    </linearGradient>
  </defs>
  <g id="logo" transform="translate(-3219)">
    <path id="Path_1" data-name="Path 1" class="cls-1" d="M113.837,77.437H103.693a1.311,1.311,0,0,0-1.474,1.474V93.419a1.311,1.311,0,0,1-1.474,1.474h-8.67A1.311,1.311,0,0,1,90.6,93.419V55.674A1.311,1.311,0,0,1,92.074,54.2h5.78l15.983,17.4Z" transform="translate(-49.6 -17.141)"/>
    <path id="Path_2" data-name="Path 2" class="cls-1" d="M134.859,71.6l15.983-17.4h5.78a1.311,1.311,0,0,1,1.474,1.474V93.419a1.311,1.311,0,0,1-1.474,1.474h-8.729a1.311,1.311,0,0,1-1.474-1.474V78.852a1.311,1.311,0,0,0-1.474-1.474H134.8V71.6Z" transform="translate(-67.732 -17.141)"/>
    <path id="Path_3" data-name="Path 3" class="cls-1" d="M203.808,91.9,189.3,65.777v-10.2a1.311,1.311,0,0,1,1.474-1.474h5.78l14.508,24.711L225.57,54.1h5.78a1.311,1.311,0,0,1,1.474,1.474V65.718L218.316,91.845c-.944,1.946-1.946,2.89-2.89,2.89H206.7C205.7,94.794,204.752,93.85,203.808,91.9Z" transform="translate(-90.09 -17.1)"/>
    <path id="Path_4" data-name="Path 4" class="cls-1" d="M309.924,54.159c7.726,0,11.618,3.362,11.618,10.144v1.474H279.433a1.311,1.311,0,0,1-1.474-1.474V55.574a1.311,1.311,0,0,1,1.474-1.474h30.491ZM289.577,80.286V93.378a1.311,1.311,0,0,1-1.474,1.474h-8.729a1.311,1.311,0,0,1-1.474-1.474v-23.3a1.311,1.311,0,0,1,1.474-1.474h42.109v1.474c0,6.782-3.892,10.144-11.618,10.144H289.577Z" transform="translate(-126.437 -17.1)"/>
  </g>
</svg>
