<svg xmlns="http://www.w3.org/2000/svg" width="42.031" height="41.938" viewBox="0 0 42.031 41.938">
  <defs>
    <style>
      .cls-1 {
        fill-rule: evenodd;
      }
    </style>
  </defs>
  <path id="magn" class="cls-1" d="M18.759,30.061a10.9,10.9,0,0,1-7.992-3.315,10.867,10.867,0,0,1-3.321-7.979,10.868,10.868,0,0,1,3.321-7.979,10.9,10.9,0,0,1,7.992-3.315,10.906,10.906,0,0,1,7.992,3.315,10.869,10.869,0,0,1,3.321,7.979,10.868,10.868,0,0,1-3.321,7.979A10.9,10.9,0,0,1,18.759,30.061Zm23.308,7.412-8.662-8.647a17.245,17.245,0,0,0,3.131-10.059,17.416,17.416,0,0,0-1.4-6.895,17.4,17.4,0,0,0-9.47-9.454,17.746,17.746,0,0,0-13.813,0,17.4,17.4,0,0,0-9.47,9.454,17.661,17.661,0,0,0,0,13.79,17.4,17.4,0,0,0,9.47,9.454,17.493,17.493,0,0,0,6.907,1.4,17.314,17.314,0,0,0,10.076-3.126L37.5,42.011a3,3,0,0,0,2.273.958,3.226,3.226,0,0,0,2.3-5.5h0Z" transform="translate(-0.969 -1.031)"/>
</svg>
