<svg xmlns="http://www.w3.org/2000/svg" width="211.875" height="181.594" viewBox="0 0 211.875 181.594">
  <defs>
    <style>
      .cls-1 {
        fill-rule: evenodd;
      }
    </style>
  </defs>
  <path id="heart" class="cls-1" d="M174.557,98.446l-68.578,66.095-68.7-66.213Q15.171,76.22,15.172,56.354a51.508,51.508,0,0,1,2.542-16.908,33,33,0,0,1,6.5-11.646,31.243,31.243,0,0,1,9.636-7.035A42.746,42.746,0,0,1,44.968,17.1a67.668,67.668,0,0,1,11.587-.946A34.017,34.017,0,0,1,69.8,19.168a60.508,60.508,0,0,1,13.065,7.567q5.969,4.553,10.228,8.513a91.947,91.947,0,0,1,7.094,7.272,7.752,7.752,0,0,0,11.587,0,92.077,92.077,0,0,1,7.094-7.272q4.257-3.96,10.228-8.513a60.489,60.489,0,0,1,13.065-7.567A34.011,34.011,0,0,1,155.4,16.153a67.688,67.688,0,0,1,11.587.946A42.774,42.774,0,0,1,178.1,20.764,31.272,31.272,0,0,1,187.74,27.8a33.057,33.057,0,0,1,6.5,11.646,51.561,51.561,0,0,1,2.542,16.908q0,19.864-22.228,42.093h0ZM196.9,15.68Q181.886,1.02,155.4,1.018A47.141,47.141,0,0,0,140.445,3.56a60.619,60.619,0,0,0-14.189,6.858q-6.561,4.317-11.291,8.1a108.863,108.863,0,0,0-8.986,8.04,109.442,109.442,0,0,0-8.986-8.04q-4.731-3.783-11.292-8.1A60.608,60.608,0,0,0,71.512,3.56,47.15,47.15,0,0,0,56.555,1.018q-26.487,0-41.5,14.662T0.037,56.354A51.77,51.77,0,0,0,2.816,72.671,71.494,71.494,0,0,0,9.142,86.977a104.233,104.233,0,0,0,8.04,11.528q4.492,5.617,6.562,7.744A38.609,38.609,0,0,0,27,109.324l73.78,71.18a7.423,7.423,0,0,0,10.405,0l73.662-70.943q27.075-27.075,27.077-53.207Q211.92,30.343,196.9,15.68Z" transform="translate(-0.031 -1.031)"/>
</svg>
