<svg xmlns="http://www.w3.org/2000/svg" width="52.719" height="119.188" viewBox="0 0 52.719 119.188">
  <defs>
    <style>
      .cls-1 {
        fill-rule: evenodd;
      }
    </style>
  </defs>
  <path id="Forma_1" data-name="Forma 1" class="cls-1" d="M52.52,115.423L39.85,102.752a22.189,22.189,0,1,0-3.108,3.109L49.412,118.52A2.194,2.194,0,0,0,52.52,115.423Zm-29.848-8.96a17.8,17.8,0,1,1,17.8-17.791A17.813,17.813,0,0,1,22.672,106.463ZM38.983,14.6v-3.42a10.984,10.984,0,1,0-21.965,0V14.6H6v46.4H50V14.6H38.983Zm-18.257-3.42a7.275,7.275,0,1,1,14.549,0V14.6H20.726v-3.42h0ZM46.294,57.222H9.706V18.371h7.311v4.4h3.708v-4.4H35.274v4.4h3.708v-4.4h7.311V57.222h0Z" transform="translate(-0.469)"/>
</svg>
