<svg fill="#000" version="1.1" id="katman_1" xmlns="http://www.w3.org/2000/svg" xmlns:xlink="http://www.w3.org/1999/xlink" x="0px" y="0px"
	 viewBox="0 0 612 15" style="enable-background:new 0 0 612 15;" xml:space="preserve">
<path d="M20.4,0c0,8.3,4.6,15,10.2,15H10.2C4.7,15,0.2,8.5,0,0.5V15h10.2C15.8,15,20.4,8.3,20.4,0z M40.8,0c0,8.3,4.6,15,10.2,15
	H30.6C36.2,15,40.8,8.3,40.8,0z M61.2,0c0,8.3,4.6,15,10.2,15H51C56.6,15,61.2,8.3,61.2,0z M81.6,0c0,8.3,4.6,15,10.2,15H71.4
	C77,15,81.6,8.3,81.6,0z M102,0c0,8.3,4.6,15,10.2,15H91.8C97.4,15,102,8.3,102,0z M122.4,0c0,8.3,4.6,15,10.2,15h-20.4
	C117.8,15,122.4,8.3,122.4,0z M142.8,0c0,8.3,4.6,15,10.2,15h-20.4C138.2,15,142.8,8.3,142.8,0L142.8,0z M163.2,0
	c0,8.3,4.6,15,10.2,15H153C158.6,15,163.2,8.3,163.2,0z M183.6,0c0,8.3,4.6,15,10.2,15h-20.4C179,15,183.6,8.3,183.6,0L183.6,0z
	 M204,0c0,8.3,4.6,15,10.2,15h-20.4C199.4,15,204,8.3,204,0L204,0z M408,0c0,8.3,4.6,15,10.2,15h-20.4C403.4,15,408,8.3,408,0z
	 M397.8,15h-20.4c-5.6,0-10.2-6.7-10.2-15c0,8.3-4.6,15-10.2,15h20.4c5.6,0,10.2-6.7,10.2-15C387.6,8.3,392.2,15,397.8,15L397.8,15z
	 M357,15h-20.4c-5.6,0-10.2-6.7-10.2-15c0,8.3-4.6,15-10.2,15h20.4c5.6,0,10.2-6.7,10.2-15C346.8,8.3,351.4,15,357,15L357,15z
	 M316.2,15h-20.4c-5.6,0-10.2-6.7-10.2-15c0,8.3-4.6,15-10.2,15h20.4c5.6,0,10.2-6.7,10.2-15C306,8.3,310.6,15,316.2,15L316.2,15z
	 M275.4,15H255c-5.6,0-10.2-6.7-10.2-15c0,8.3-4.6,15-10.2,15H255c5.6,0,10.2-6.7,10.2-15C265.2,8.3,269.8,15,275.4,15L275.4,15z
	 M234.6,15h-20.4c5.6,0,10.2-6.7,10.2-15C224.4,8.3,229,15,234.6,15z M428.4,0c0,8.3,4.6,15,10.2,15h-20.4
	C423.8,15,428.4,8.3,428.4,0L428.4,0z M448.8,0c0,8.3,4.6,15,10.2,15h-20.4C444.2,15,448.8,8.3,448.8,0z M469.2,0
	c0,8.3,4.6,15,10.2,15H459C464.6,15,469.2,8.3,469.2,0L469.2,0z M489.6,0c0,8.3,4.6,15,10.2,15h-20.4C485,15,489.6,8.3,489.6,0z
	 M510,0c0,8.3,4.6,15,10.2,15h-20.4C505.4,15,510,8.3,510,0L510,0z M530.4,0c0,8.3,4.6,15,10.2,15h-20.4C525.8,15,530.4,8.3,530.4,0
	z M550.8,0c0,8.3,4.6,15,10.2,15h-20.4C546.2,15,550.8,8.3,550.8,0L550.8,0z M571.2,0c0,8.3,4.6,15,10.2,15H561
	C566.6,15,571.2,8.3,571.2,0z M591.6,0c0,8.3,4.6,15,10.2,15h-20.4C587,15,591.6,8.3,591.6,0L591.6,0z M612,0.5V15h-10.2
	C607.3,15,611.8,8.5,612,0.5z"/>
</svg>
