<svg xmlns="http://www.w3.org/2000/svg" preserveAspectRatio="none" x="0px" y="0px" viewBox="0 0 1440 149">
	<path d="m0,54.06187c118.19818,9.64301 197.37493,15.71477 237.53025,18.21526c22.9659,1.4301 43.9256,3.1575 60.11153,3.83798c78.87981,3.31625 155.08061,4.4588 227.62385,1.88042c85.54281,-3.04043 180.25642,-8.19922 242.59375,-16.57343c150.375,-20.20094 300.50006,-40.24059 375.79417,-47.64866c27.83046,-2.73819 48.71532,-4.56444 74.66105,-6.57284c36.37895,-2.816 71.9183,-4.52609 98.99648,-5.52791c27.07819,-1.00183 58.90895,-1.67269 79.22064,-1.67269c13.54113,0 28.03056,0.55756 43.46828,1.67269l0,147.32731l-1440,0l0,-94.93813z"/>
</svg>
