<svg fill="#000" version="1.1" xmlns="http://www.w3.org/2000/svg" xmlns:xlink="http://www.w3.org/1999/xlink" x="0px" y="0px" viewBox="0 0 1600 100" style="enable-background:new 0 0 1600 100;" xml:space="preserve">
<path fill-opacity="0.5" d="M1040,56c0.5,0,1,0,1.6,0c-16.6-8.9-36.4-15.7-66.4-15.7c-56,0-76.8,23.7-106.9,41c12.8,8,27.3,14.7,51.7,14.7
	C979.5,96,980,56,1040,56z"/>
<path fill-opacity="0.5" d="M1699.8,96v10H1946l-0.3-6.9c0,0,0,0-88,0s-88.6-58.8-176.5-58.8c-51.4,0-73,20.1-99.6,36.8
	c14.5,9.6,29.6,18.9,58.4,18.9C1699.8,96,1699.8,96,1699.8,96z"/>
<path fill-opacity="0.5" d="M1400,96c19.5,0,32.7-4.3,43.7-10c-35.2-17.3-54.1-45.7-115.5-45.7c-32.3,0-52.8,7.9-70.2,17.8
	c6.4-1.3,13.6-2.1,22-2.1C1340.1,56,1340.3,96,1400,96z"/>
<path fill-opacity="0.5" d="M680,96c23.7,0,38.1-6.3,50.5-13.9C699.6,64.8,679,40.3,622.2,40.3c-30,0-49.8,6.8-66.3,15.8
	c1.3,0,2.7-0.1,4.1-0.1C619.7,56,620.2,96,680,96z"/>
<path fill-opacity="0.5" d="M-22.5,90.7c28.3,0,43.3-8.7,57.4-18C7.9,55.9-13.5,35.3-65.7,35.3c-14.3,0-26.3,1.6-36.8,4.2v61.6h60v-10
	L-22.5,90.7z"/>
<path fill-opacity="0.5" d="M504,73.4c-2.6-0.8-5.7-1.4-9.6-1.4c-19.4,0-19.6,13-39,13s-19.5-13-39-13c-14,0-18,6.7-26.3,10.4
	C402.4,89.9,416.7,96,440,96C472.5,96,487.5,84.2,504,73.4z"/>
<path fill-opacity="0.5" d="M1205.4,85c-0.2,0-0.4,0-0.6,0c-19.5,0-19.5-13-39-13c-19.7,0-19.2,12.9-39,12.9c0,0-5.9,0-12.3,0.1
	c11.4,6.3,24.9,11,45.5,11S1194.1,91.2,1205.4,85z"/>
<path fill-opacity="0.5" d="M1447.4,83.9c-2.4,0.7-5.2,1.1-8.6,1.1c-19.3,0-19.8-15.6-39-13c-37.3,5-46.1,20.4-39,13
	c2.1-2.2-5.5-0.3-7.7-0.8c11.6,6.6,25.4,11.8,46.9,11.8C1421.8,96,1435.7,90.7,1447.4,83.9z"/>
<path fill-opacity="0.5" d="M985.8,72c-17.6,0.8-18.3,13-37,13c-19.4,0-19.5-13-39-13c-18.2,0-19.6,11.4-35.5,12.8
	c11.4,6.3,25,11.2,45.7,11.2C953.7,96,968.5,83.2,985.8,72z"/>
<path fill-opacity="0.5" d="M1692.3,96V85c0,0,0,0-19.5,0s-19.6-13-39-13s-19.6,13-39,13c-0.1,0-0.2,0-0.4,0c11.4,6.2,24.9,11,45.6,11
	C1669.9,96,1684.8,96,1692.3,96z"/>
<path d="M-40,95.6C20.3,95.6,20.1,56,80,56s60,40,120,40s59.9-40,120-40s60.3,40,120,40s60.3-40,120-40s60.2,40,120,40
	s60.1-40,120-40s60.5,40,120,40s60-40,120-40s60.4,40,120,40s59.9-40,120-40s60.3,40,120,40s60.2-40,120-40s60.2,40,120,40
	s59.8,0,59.8,0l0.2,143H-60V96L-40,95.6z"/>
</svg>
