<svg fill="#000" width="1920" height="198" viewBox="0 0 3200 198" version="1.1" xmlns="http://www.w3.org/2000/svg" xmlns:xlink="http://www.w3.org/1999/xlink">
		<path d="M1511,2.98155597e-19 C1911,2.98155597e-19 2011,198 2300,198 L700,198 C1011,198 1109.9,-0.2 1511,2.98155597e-19 Z"></path>
		<path d="M1600,121 C1911,121 2009.9,-0.2 2411,-1.42108547e-14 C2811,-1.42108547e-14 2911,121 3200,121 L3200,198 L1600,198 C1600,198 1600,150 1600,121 Z M0,121 C311,121 409.9,-0.2 811,-1.42108547e-14 C1211,-1.42108547e-14 1311,121 1600,121 L1600,198 L0,198 C0,198 0,150 0,121 Z" fill-opacity="0.5"></path>
</svg>
