<svg xmlns="http://www.w3.org/2000/svg" width="42.313" height="37.375" viewBox="0 0 42.313 37.375">
  <defs>
    <style>
      .cls-1 {
        stroke: #000;
        stroke-width: 0.25px;
        fill-rule: evenodd;
      }
    </style>
  </defs>
  <path class="cls-1" d="M42.141,6.266H8.774a0.864,0.864,0,0,0-.185.037L7.232,1.891a0.933,0.933,0,0,0-.069-0.127A0.886,0.886,0,0,0,6.275.951h0l-4.415.018a0.894,0.894,0,0,0-.9.887,0.892,0.892,0,0,0,.9.879h0L5.6,2.72l8.633,28.049a4.128,4.128,0,0,0-1.4,3.086,4.284,4.284,0,0,0,8.567,0,4.085,4.085,0,0,0-.37-1.692H33.492a4.089,4.089,0,0,0-.37,1.692,4.284,4.284,0,1,0,4.284-4.194,4.328,4.328,0,0,0-2.42.736H19.534a4.217,4.217,0,0,0-3.692-.526l-1.288-4.183,22.72-.018a0.889,0.889,0,0,0,.844-0.607A0.816,0.816,0,0,0,38.2,24.89L43.009,7.528A0.845,0.845,0,0,0,43.031,7.2c0-.018.011-0.033,0.011-0.051A0.891,0.891,0,0,0,42.141,6.266ZM37.406,31.427a2.428,2.428,0,1,1-2.48,2.428A2.457,2.457,0,0,1,37.406,31.427Zm-20.29,0a2.428,2.428,0,1,1-2.48,2.428A2.456,2.456,0,0,1,17.116,31.427ZM36.6,23.906l-22.593.018L9.122,8.033H41Z" transform="translate(-0.844 -0.813)"/>
</svg>
