<?xml version="1.0" encoding="UTF-8"?>
<svg width="71px" height="57px" viewBox="0 0 71 57" version="1.1" xmlns="http://www.w3.org/2000/svg" xmlns:xlink="http://www.w3.org/1999/xlink">
    <!-- Generator: Sketch 46.2 (44496) - http://www.bohemiancoding.com/sketch -->
    <title>Group</title>
    <desc>Created with Sketch.</desc>
    <defs></defs>
    <g id="Page-1" stroke="none" stroke-width="1" fill="none" fill-rule="evenodd">
        <g id="Dashboard" transform="translate(-323.000000, -586.000000)" fill-rule="nonzero">
            <g id="Content" transform="translate(161.000000, 93.000000)">
                <g id="Automatic-Updates" transform="translate(56.000000, 443.861978)">
                    <g id="Group" transform="translate(106.000000, 50.000000)">
                        <path d="M63.846593,28.2353509 C63.846593,12.6665679 51.0105585,0 35.2333839,0 C27.5895773,0 20.4040358,2.93778456 15,8.27071349 L21.7439024,14.9256386 C25.3470121,11.3702148 30.1376991,9.41169172 35.2333839,9.41169172 C45.7514071,9.41169172 54.3089497,17.8561162 54.3089497,28.235213 L47.1555427,28.235213 L59.0774221,40 L71,28.2353509 L63.846593,28.2353509 Z" id="Shape" fill="#6C00FF"></path>
                        <path d="M35.7673652,46.5882029 C25.2482504,46.5882029 16.6914278,38.1438074 16.6914278,27.7647464 L23.844817,27.7647464 L11.9226879,16 L0,27.7647464 L7.1533892,27.7647464 C7.1533892,43.3334758 19.9891122,56 35.7673652,56 C43.4107336,56 50.5963969,53.0625013 56,47.729315 L49.255835,41.0746886 C45.652874,44.6298244 40.8619195,46.5882029 35.7673652,46.5882029 Z" id="Shape" fill="#4AE4C6"></path>
                    </g>
                </g>
            </g>
        </g>
    </g>
</svg>