<?xml version="1.0" encoding="UTF-8"?>
<svg width="193px" height="134px" viewBox="0 0 193 134" version="1.1" xmlns="http://www.w3.org/2000/svg" xmlns:xlink="http://www.w3.org/1999/xlink">
    <!-- Generator: Sketch 44.1 (41455) - http://www.bohemiancoding.com/sketch -->
    <title>illustration-3</title>
    <desc>Created with Sketch.</desc>
    <defs></defs>
    <g id="Page-1" stroke="none" stroke-width="1" fill="none" fill-rule="evenodd">
        <g id="illustration-3" transform="translate(1.000000, 0.000000)">
            <polygon id="Fill-55" fill="#FFFFFF" points="30 133 16 133 11 117 35 117"></polygon>
            <polygon id="Stroke-56" stroke="#6f14f1" stroke-width="2" stroke-linejoin="round" points="30 133 16 133 11 117 35 117"></polygon>
            <polygon id="Fill-57" fill="#FFFFFF" points="174.001 133 156.001 133 153.001 109 177.001 109"></polygon>
            <polygon id="Stroke-58" stroke="#6f14f1" stroke-width="2" stroke-linejoin="round" points="174.001 133 156.001 133 153.001 109 177.001 109"></polygon>
            <polygon id="Fill-59" fill="#FFFFFF" points="31 117 15 117 15 96 23 90 31 96"></polygon>
            <polygon id="Fill-60" fill="#FFFFFF" points="105 133 101 122 87 122 83 133"></polygon>
            <polyline id="Fill-61" fill="#FFFFFF" points="119 54 142 54 142 122 46 122 46 54 71 54"></polyline>
            <polygon id="Fill-62" fill="#FFFFFF" points="89 65 84 23 94 0 104 23 99 65"></polygon>
            <polygon id="Fill-63" fill="#E8D9FF" points="23 90 31 96 31 117 23 117"></polygon>
            <polygon id="Fill-64" fill="#E8D9FF" points="102.8184 127 101.0004 122 87.0004 122 85.1814 127"></polygon>
            <polygon id="Fill-66" fill="#E8D9FF" points="142 54 142 109 46 109"></polygon>
            <polyline id="Stroke-67" stroke="#6f14f1" stroke-width="2" stroke-linecap="round" stroke-linejoin="round" points="158 104 160 102 156 98 158 96"></polyline>
            <polyline id="Stroke-68" stroke="#6f14f1" stroke-width="2" stroke-linecap="round" stroke-linejoin="round" points="165 104 167 102 163 98 165 96"></polyline>
            <polyline id="Stroke-69" stroke="#6f14f1" stroke-width="2" stroke-linecap="round" stroke-linejoin="round" points="172 104 174 102 170 98 172 96"></polyline>
            <polygon id="Stroke-70" stroke="#6f14f1" stroke-width="2" stroke-linejoin="round" points="97 117 94 119 91 117 91 114 94 112 97 114"></polygon>
            <polygon id="Stroke-71" stroke="#6f14f1" stroke-width="2" stroke-linecap="round" stroke-linejoin="round" points="105 133 101 122 87 122 83 133"></polygon>
            <polygon id="Stroke-72" stroke="#6f14f1" stroke-width="2" stroke-linecap="round" stroke-linejoin="round" points="31 117 15 117 15 96 23 90 31 96"></polygon>
            <path d="M15,101 L12,101" id="Stroke-73" stroke="#6f14f1" stroke-width="2" stroke-linecap="round" stroke-linejoin="round"></path>
            <path d="M15,96 L13,95" id="Stroke-74" stroke="#6f14f1" stroke-width="2" stroke-linecap="round" stroke-linejoin="round"></path>
            <path d="M15,107 L12,107" id="Stroke-75" stroke="#6f14f1" stroke-width="2" stroke-linecap="round" stroke-linejoin="round"></path>
            <path d="M15,113 L12,113" id="Stroke-76" stroke="#6f14f1" stroke-width="2" stroke-linecap="round" stroke-linejoin="round"></path>
            <path d="M31,101 L34,101" id="Stroke-77" stroke="#6f14f1" stroke-width="2" stroke-linecap="round" stroke-linejoin="round"></path>
            <path d="M31,107 L34,107" id="Stroke-78" stroke="#6f14f1" stroke-width="2" stroke-linecap="round" stroke-linejoin="round"></path>
            <path d="M31,113 L34,113" id="Stroke-79" stroke="#6f14f1" stroke-width="2" stroke-linecap="round" stroke-linejoin="round"></path>
            <path d="M19,93 L17,91" id="Stroke-80" stroke="#6f14f1" stroke-width="2" stroke-linecap="round" stroke-linejoin="round"></path>
            <path d="M31,96 L33,95" id="Stroke-81" stroke="#6f14f1" stroke-width="2" stroke-linecap="round" stroke-linejoin="round"></path>
            <path d="M27,93 L29,91" id="Stroke-82" stroke="#6f14f1" stroke-width="2" stroke-linecap="round" stroke-linejoin="round"></path>
            <path d="M12.25,121 L33.75,121" id="Stroke-83" stroke="#6f14f1" stroke-width="2" stroke-linecap="round" stroke-linejoin="round"></path>
            <polyline id="Stroke-84" stroke="#6f14f1" stroke-width="2" stroke-linecap="round" stroke-linejoin="round" points="19 113 21 110 19 107 21 104 19 101 21 98"></polyline>
            <polyline id="Stroke-85" stroke="#6f14f1" stroke-width="2" stroke-linecap="round" stroke-linejoin="round" points="25 113 27 110 25 107 27 104 25 101 27 98"></polyline>
            <path d="M9,133 L183,133" id="Stroke-86" stroke="#6f14f1" stroke-width="2" stroke-linecap="round" stroke-linejoin="round"></path>
            <path d="M188,133 L191,133" id="Stroke-87" stroke="#6f14f1" stroke-width="2" stroke-linecap="round" stroke-linejoin="round"></path>
            <path d="M0,133 L3,133" id="Stroke-88" stroke="#6f14f1" stroke-width="2" stroke-linecap="round" stroke-linejoin="round"></path>
            <path d="" id="Stroke-103" stroke="#6f14f1" stroke-width="2" stroke-linecap="round" stroke-linejoin="round"></path>
            <polygon id="Fill-106" fill="#E8D9FF" points="165.001 126 171.001 120 168.001 115 165.001 118 162.001 115 159.001 120"></polygon>
            <polygon id="Stroke-107" stroke="#6f14f1" stroke-width="2" stroke-linejoin="round" points="165.001 126 171.001 120 168.001 115 165.001 118 162.001 115 159.001 120"></polygon>
            <polyline id="Stroke-108" stroke="#6f14f1" stroke-width="2" stroke-linecap="round" stroke-linejoin="round" points="176.251 115 184 115 179 127 174.751 127"></polyline>
            <polygon id="Stroke-136" stroke="#6f14f1" stroke-width="2" stroke-linecap="round" stroke-linejoin="round" points="119 54 142 54 142 122 46 122 46 54 71 54"></polygon>
            <path d="M46,109 L142,109" id="Stroke-137" stroke="#6f14f1" stroke-width="2" stroke-linecap="round" stroke-linejoin="round"></path>
            <path d="M82.125,62.885 L95.765,62.885 C99.6516861,62.885 102.658323,63.8291572 104.785,65.7175 C106.911677,67.6058428 107.975,70.0349851 107.975,73.005 C107.975,77.2583546 105.536691,80.0633265 100.66,81.42 C103.116679,81.8233354 105.096659,82.9233244 106.6,84.72 C108.103341,86.5166756 108.855,88.5883216 108.855,90.935 C108.855,93.8316812 107.727511,96.2333238 105.4725,98.14 C103.217489,100.046676 100.201686,101 96.425,101 L82.125,101 L82.125,62.885 Z M87.13,66.9 L87.13,79.44 L95.545,79.44 C97.8550116,79.44 99.6608268,78.8808389 100.9625,77.7625 C102.264173,76.6441611 102.915,75.1225096 102.915,73.1975 C102.915,71.2724904 102.264173,69.7416724 100.9625,68.605 C99.6608268,67.4683276 97.8550116,66.9 95.545,66.9 L87.13,66.9 Z M87.13,97.04 L96.15,97.04 C98.5700121,97.04 100.467493,96.435006 101.8425,95.225 C103.217507,94.0149939 103.905,92.3558439 103.905,90.2475 C103.905,88.1391561 103.162507,86.4800061 101.6775,85.27 C100.192493,84.059994 98.2216789,83.455 95.765,83.455 L87.13,83.455 L87.13,97.04 Z" id="B" fill="#6f14f1"></path>
        </g>
    </g>
</svg>
