<?xml version="1.0" encoding="UTF-8"?>
<svg width="59px" height="61px" viewBox="0 0 59 61" version="1.1" xmlns="http://www.w3.org/2000/svg" xmlns:xlink="http://www.w3.org/1999/xlink">
    <!-- Generator: Sketch 46.2 (44496) - http://www.bohemiancoding.com/sketch -->
    <title>icon</title>
    <desc>Created with Sketch.</desc>
    <defs></defs>
    <g id="Page-1" stroke="none" stroke-width="1" fill="none" fill-rule="evenodd">
        <g id="Dashboard" transform="translate(-980.000000, -577.000000)" fill-rule="nonzero">
            <g id="Content" transform="translate(161.000000, 93.000000)">
                <g id="Video-Tutorials" transform="translate(706.000000, 443.861978)">
                    <g id="icon" transform="translate(113.000000, 41.000000)">
                        <rect id="Rectangle-path" fill="#D8D6D6" x="0.0769022186" y="57.2084279" width="34.9136073" height="2.12453428"></rect>
                        <rect id="Rectangle-path" fill="#4AE4C6" x="40.3736648" y="57.0193139" width="17.226097" height="2.12453428"></rect>
                        <path d="M56.6710526,52 L2.32894737,52 C1.08684211,52 0,50.902439 0,49.6480836 L0,9.35191638 C0,8.09756098 1.08684211,7 2.32894737,7 L56.6710526,7 C57.9131579,7 59,8.09756098 59,9.35191638 L59,49.6480836 C59,50.902439 57.9131579,52 56.6710526,52 Z" id="Shape" fill="#6C00FF"></path>
                        <polygon id="Shape" fill="#FFFFFF" points="24 23 36 29.9496403 24 37"></polygon>
                        <rect id="Rectangle-path" fill="#4AE4C6" x="0" y="0" width="13" height="2"></rect>
                        <rect id="Rectangle-path" fill="#D8D6D6" x="17" y="0" width="42" height="2"></rect>
                    </g>
                </g>
            </g>
        </g>
    </g>
</svg>